<svg xmlns="http://www.w3.org/2000/svg" width="26.369863510131836" height="18.630136489868164"><rect id="backgroundrect" width="100%" height="100%" x="0" y="0" fill="none" stroke="none"/>
  
<g class="currentLayer" style=""><title>Layer 1</title><path id="Path_587" data-name="Path 587" d="M3.5860000000000003,3.799999967575073 L7.908,5.252999967575073 a8.071,8.071 0 0 0 5.042,0.031000000000000007 c3.785,-0.9390000000000001 11.98,-2.565 12.063,-2.583 l-0.30500000000000005,-1.54 l-0.05400000000000001,0.011000000000000003 l-7.811,-1.1 a11.21,11.21 0 0 0 -3.1,0.08000000000000002 L3.3,2.176999967575073 a3.06,3.06 0 0 0 -2.122,5.41 a3.05,3.05 0 0 0 -0.015000000000000003,4.813 a3.066,3.066 0 0 0 0.9680000000000001,5.3260000000000005 l7.5280000000000005,2.407 a3.369,3.369 0 0 0 1.514,0.06400000000000002 L24.392,17.168999967575072 s-0.07900000000000001,-0.3420000000000001 -0.17500000000000002,-0.7650000000000001 a0.785,0.785 0 0 0 -0.9410000000000001,-0.5900000000000001 L11.245,18.568999967575074 A3.387,3.387 0 0 1 9.731,18.508999967575072 L2.614,16.229999967575072 a1.5,1.5 0 0 1 -0.97,-1.8810000000000002 a1.5,1.5 0 0 1 1.8820000000000001,-0.972 c0,-0.007000000000000002 4.355,1.3840000000000001 6.138,1.952 a3.369,3.369 0 0 0 1.514,0.06400000000000002 l13.215,-3.027 s-0.07900000000000001,-0.3430000000000001 -0.17500000000000002,-0.7650000000000001 a0.785,0.785 0 0 0 -0.9410000000000001,-0.5900000000000001 L11.245,13.766999967575074 a3.4,3.4 0 0 1 -1.514,-0.06400000000000002 L2.614,11.426999967575073 a1.5,1.5 0 0 1 -0.97,-1.8810000000000002 a1.5,1.5 0 0 1 1.8820000000000001,-0.972 s4.414,1.408 6.211,1.982 a3.366,3.366 0 0 0 1.513,0.06400000000000002 l13.215,-3.028 s-0.07900000000000001,-0.3420000000000001 -0.17500000000000002,-0.7650000000000001 a0.785,0.785 0 0 0 -0.9410000000000001,-0.5890000000000001 L11.318,8.991999967575074 A3.37,3.37 0 0 1 9.8,8.928999967575074 L2.686,6.653999967575073 a1.5,1.5 0 0 1 0.9,-2.854 z" class="" fill="#ff4800" fill-opacity="1"/></g></svg>